<?xml version="1.0" encoding="UTF-8"?>
<!-- Generator: visioncortex VTracer 0.6.4 -->
<svg version="1.1" xmlns="http://www.w3.org/2000/svg" width="16" height="16">
<path d="M0,0 L6,0 L6,1 L0,1 Z M-1,1 L0,1 L0,2 L-1,2 Z M6,1 L7,1 L7,2 L6,2 Z M-2,2 L-1,2 L-1,3 L-2,3 Z M7,2 L8,2 L8,3 L7,3 Z M-3,3 L-2,3 L-2,9 L-3,9 Z M8,3 L9,3 L9,9 L8,9 Z M-2,9 L-1,9 L-1,10 L-2,10 Z M7,9 L8,9 L8,10 L7,10 Z M-1,10 L0,10 L0,11 L-1,11 Z M6,10 L7,10 L7,11 L6,11 Z M0,11 L6,11 L6,12 L0,12 Z " fill="#FF7085" transform="translate(5,2)"/>
<path d="M0,0 L1,0 L1,5 L0,5 Z M1,5 L2,5 L2,6 L1,6 Z M2,6 L3,6 L3,7 L2,7 Z M3,7 L8,7 L8,8 L3,8 Z " fill="#FF7085" transform="translate(2,6)"/>
<path d="M0,0 L1,0 L1,2 L0,2 Z M-1,2 L0,2 L0,3 L-1,3 Z M-2,3 L-1,3 L-1,4 L-2,4 Z M-3,4 L-2,4 L-2,5 L-3,5 Z " fill="#FF7085" transform="translate(13,9)"/>
<path d="M0,0 L1,0 L1,1 L0,1 Z M-1,1 L0,1 L0,2 L-1,2 Z M-2,2 L-1,2 L-1,3 L-2,3 Z M-3,3 L-2,3 L-2,4 L-3,4 Z " fill="#FF7085" transform="translate(5,2)"/>
<path d="M0,0 L1,0 L1,3 L0,3 Z " fill="#FF7085" transform="translate(2,6)"/>
<path d="M0,0 L3,0 L3,1 L0,1 Z " fill="#FF7085" transform="translate(6,2)"/>
<path d="M0,0 L4,0 L4,1 L0,1 Z " fill="#FF7085" transform="translate(6,13)"/>
<path d="M0,0 L1,0 L1,3 L0,3 Z " fill="#FF7085" transform="translate(13,6)"/>
<path d="M0,0 L1,0 L1,1 L0,1 Z " fill="#FF7085" opacity="0.09803922" transform="translate(7,12)"/>
<path d="M0,0 L1,0 L1,1 L0,1 Z " fill="#FF7085" opacity="0.09803922" transform="translate(12,7)"/>
<path d="M0,0 L1,0 L1,1 L0,1 Z " fill="#FF7085" opacity="0.09803922" transform="translate(3,7)"/>
<path d="M0,0 L1,0 L1,2 L0,2 Z " fill="#FF7085" transform="translate(2,6)"/>
<path d="M0,0 L1,0 L1,1 L0,1 Z " fill="#FF7085" opacity="0.09803922" transform="translate(7,3)"/>
<path d="M0,0 L2,0 L2,1 L0,1 Z " fill="#FF7085" transform="translate(6,2)"/>
<path d="M0,0 L1,0 L1,1 L0,1 Z " fill="#FF6F84" opacity="0.52156866" transform="translate(4,11)"/>
<path d="M0,0 L1,0 L1,1 L0,1 Z " fill="#FF6F84" opacity="0.52156866" transform="translate(11,4)"/>
<path d="M0,0 L1,0 L1,1 L0,1 Z " fill="#FF7085" opacity="0.9490196" transform="translate(7,14)"/>
<path d="M0,0 L1,0 L1,1 L0,1 Z " fill="#FF6F84" opacity="0.5058824" transform="translate(5,14)"/>
<path d="M0,0 L1,0 L1,1 L0,1 Z M-1,1 L0,1 L0,2 L-1,2 Z " fill="#FF7086" opacity="0.3137255" transform="translate(13,12)"/>
<path d="M0,0 L1,0 L1,1 L0,1 Z M1,1 L2,1 L2,2 L1,2 Z " fill="#FF6F84" opacity="0.3254902" transform="translate(2,12)"/>
<path d="M0,0 L1,0 L1,1 L0,1 Z " fill="#FF7086" opacity="0.07450981" transform="translate(14,11)"/>
<path d="M0,0 L1,0 L1,1 L0,1 Z M-1,1 L0,1 L0,2 L-1,2 Z " fill="#FF6F84" opacity="0.007843138" transform="translate(11,10)"/>
<path d="M0,0 L1,0 L1,1 L0,1 Z " fill="#FF7085" opacity="0.9490196" transform="translate(14,7)"/>
<path d="M0,0 L1,0 L1,1 L0,1 Z " fill="#FF6F84" opacity="0.9529412" transform="translate(1,7)"/>
<path d="M0,0 L1,0 L1,1 L0,1 Z " fill="#FF6F84" opacity="0.5058824" transform="translate(14,5)"/>
<path d="M0,0 L1,0 L1,1 L0,1 Z " fill="#FF7085" opacity="0.5176471" transform="translate(1,5)"/>
<path d="M0,0 L1,0 L1,1 L0,1 Z M1,1 L2,1 L2,2 L1,2 Z " fill="#FF6F84" opacity="0.3254902" transform="translate(12,2)"/>
<path d="M0,0 L1,0 L1,1 L0,1 Z M-1,1 L0,1 L0,2 L-1,2 Z " fill="#FF7185" opacity="0.3372549" transform="translate(3,2)"/>
<path d="M0,0 L1,0 L1,1 L0,1 Z " fill="#FF6F84" opacity="0.9529412" transform="translate(7,1)"/>
<path d="M0,0 L1,0 L1,1 L0,1 Z " fill="#FF7085" opacity="0.5176471" transform="translate(5,1)"/>
<path d="M0,0 L1,0 L1,1 L0,1 Z " fill="#FF7085" opacity="0.07450981" transform="translate(11,14)"/>
<path d="M0,0 L1,0 L1,1 L0,1 Z " fill="#FF7086" opacity="0.5019608" transform="translate(10,14)"/>
<path d="M0,0 L1,0 L1,1 L0,1 Z " fill="#FF7085" opacity="0.8039216" transform="translate(9,14)"/>
<path d="M0,0 L1,0 L1,1 L0,1 Z " fill="#FF7085" opacity="0.9490196" transform="translate(8,14)"/>
<path d="M0,0 L1,0 L1,1 L0,1 Z " fill="#FF6F84" opacity="0.80784315" transform="translate(6,14)"/>
<path d="M0,0 L1,0 L1,1 L0,1 Z " fill="#FF7380" opacity="0.078431375" transform="translate(4,14)"/>
<path d="M0,0 L1,0 L1,1 L0,1 Z " fill="#FF7085" opacity="0.9411765" transform="translate(11,13)"/>
<path d="M0,0 L1,0 L1,1 L0,1 Z " fill="#FF6F84" opacity="0.94509804" transform="translate(4,13)"/>
<path d="M0,0 L1,0 L1,1 L0,1 Z " fill="#FF6F85" opacity="0.99607843" transform="translate(12,12)"/>
<path d="M0,0 L1,0 L1,1 L0,1 Z " fill="#FF6F84" opacity="0.7647059" transform="translate(10,12)"/>
<path d="M0,0 L1,0 L1,1 L0,1 Z " fill="#FF6F86" opacity="0.30588236" transform="translate(9,12)"/>
<path d="M0,0 L1,0 L1,1 L0,1 Z " fill="#FF6C89" opacity="0.101960786" transform="translate(8,12)"/>
<path d="M0,0 L1,0 L1,1 L0,1 Z " fill="#FF7184" opacity="0.3019608" transform="translate(6,12)"/>
<path d="M0,0 L1,0 L1,1 L0,1 Z " fill="#FF7085" opacity="0.7607843" transform="translate(5,12)"/>
<path d="M0,0 L1,0 L1,1 L0,1 Z " fill="#FF6F85" opacity="0.99607843" transform="translate(3,12)"/>
<path d="M0,0 L1,0 L1,1 L0,1 Z " fill="#FF7085" opacity="0.9411765" transform="translate(13,11)"/>
<path d="M0,0 L1,0 L1,1 L0,1 Z " fill="#FF6F84" opacity="0.5294118" transform="translate(11,11)"/>
<path d="M0,0 L1,0 L1,1 L0,1 Z " fill="#FF6F84" opacity="0.007843138" transform="translate(5,11)"/>
<path d="M0,0 L1,0 L1,1 L0,1 Z " fill="#FF7085" opacity="0.9490196" transform="translate(2,11)"/>
<path d="M0,0 L1,0 L1,1 L0,1 Z " fill="#FF6D86" opacity="0.08235294" transform="translate(1,11)"/>
<path d="M0,0 L1,0 L1,1 L0,1 Z " fill="#FF7086" opacity="0.5019608" transform="translate(14,10)"/>
<path d="M0,0 L1,0 L1,1 L0,1 Z " fill="#FF6F84" opacity="0.7647059" transform="translate(12,10)"/>
<path d="M0,0 L1,0 L1,1 L0,1 Z " fill="#FF6F84" opacity="0.003921569" transform="translate(4,10)"/>
<path d="M0,0 L1,0 L1,1 L0,1 Z " fill="#FF6F84" opacity="0.75686276" transform="translate(3,10)"/>
<path d="M0,0 L1,0 L1,1 L0,1 Z " fill="#FF6F84" opacity="0.5137255" transform="translate(1,10)"/>
<path d="M0,0 L1,0 L1,1 L0,1 Z " fill="#FF7085" opacity="0.8039216" transform="translate(14,9)"/>
<path d="M0,0 L1,0 L1,1 L0,1 Z " fill="#FF6F86" opacity="0.30588236" transform="translate(12,9)"/>
<path d="M0,0 L1,0 L1,1 L0,1 Z " fill="#FF6F86" opacity="0.29803923" transform="translate(3,9)"/>
<path d="M0,0 L1,0 L1,1 L0,1 Z " fill="#FF7084" opacity="0.8156863" transform="translate(1,9)"/>
<path d="M0,0 L1,0 L1,1 L0,1 Z " fill="#FF7085" opacity="0.9490196" transform="translate(14,8)"/>
<path d="M0,0 L1,0 L1,1 L0,1 Z " fill="#FF6C89" opacity="0.101960786" transform="translate(12,8)"/>
<path d="M0,0 L1,0 L1,1 L0,1 Z " fill="#FF7085" opacity="0.09803922" transform="translate(3,8)"/>
<path d="M0,0 L1,0 L1,1 L0,1 Z " fill="#FF6F84" opacity="0.9529412" transform="translate(1,8)"/>
<path d="M0,0 L1,0 L1,1 L0,1 Z " fill="#FF6F84" opacity="0.80784315" transform="translate(14,6)"/>
<path d="M0,0 L1,0 L1,1 L0,1 Z " fill="#FF7184" opacity="0.3019608" transform="translate(12,6)"/>
<path d="M0,0 L1,0 L1,1 L0,1 Z " fill="#FF7085" opacity="0.29411766" transform="translate(3,6)"/>
<path d="M0,0 L1,0 L1,1 L0,1 Z " fill="#FF7084" opacity="0.8156863" transform="translate(1,6)"/>
<path d="M0,0 L1,0 L1,1 L0,1 Z " fill="#FF7085" opacity="0.7607843" transform="translate(12,5)"/>
<path d="M0,0 L1,0 L1,1 L0,1 Z " fill="#FF6F84" opacity="0.007843138" transform="translate(11,5)"/>
<path d="M0,0 L1,0 L1,1 L0,1 Z " fill="#FF7085" opacity="0.003921569" transform="translate(4,5)"/>
<path d="M0,0 L1,0 L1,1 L0,1 Z " fill="#FF7084" opacity="0.7490196" transform="translate(3,5)"/>
<path d="M0,0 L1,0 L1,1 L0,1 Z " fill="#FF7380" opacity="0.078431375" transform="translate(14,4)"/>
<path d="M0,0 L1,0 L1,1 L0,1 Z " fill="#FF6F84" opacity="0.94509804" transform="translate(13,4)"/>
<path d="M0,0 L1,0 L1,1 L0,1 Z " fill="#FF6F84" opacity="0.003921569" transform="translate(10,4)"/>
<path d="M0,0 L1,0 L1,1 L0,1 Z " fill="#FF7084" opacity="0.003921569" transform="translate(5,4)"/>
<path d="M0,0 L1,0 L1,1 L0,1 Z " fill="#FF7085" opacity="0.50980395" transform="translate(4,4)"/>
<path d="M0,0 L1,0 L1,1 L0,1 Z " fill="#FF6F84" opacity="0.9529412" transform="translate(2,4)"/>
<path d="M0,0 L1,0 L1,1 L0,1 Z " fill="#FF7480" opacity="0.08627451" transform="translate(1,4)"/>
<path d="M0,0 L1,0 L1,1 L0,1 Z " fill="#FF6F85" opacity="0.99607843" transform="translate(12,3)"/>
<path d="M0,0 L1,0 L1,1 L0,1 Z " fill="#FF6F84" opacity="0.75686276" transform="translate(10,3)"/>
<path d="M0,0 L1,0 L1,1 L0,1 Z " fill="#FF6F86" opacity="0.29803923" transform="translate(9,3)"/>
<path d="M0,0 L1,0 L1,1 L0,1 Z " fill="#FF7085" opacity="0.09803922" transform="translate(8,3)"/>
<path d="M0,0 L1,0 L1,1 L0,1 Z " fill="#FF7085" opacity="0.29411766" transform="translate(6,3)"/>
<path d="M0,0 L1,0 L1,1 L0,1 Z " fill="#FF7084" opacity="0.7490196" transform="translate(5,3)"/>
<path d="M0,0 L1,0 L1,1 L0,1 Z " fill="#FF6F85" opacity="0.99607843" transform="translate(3,3)"/>
<path d="M0,0 L1,0 L1,1 L0,1 Z " fill="#FF7085" opacity="0.9490196" transform="translate(11,2)"/>
<path d="M0,0 L1,0 L1,1 L0,1 Z " fill="#FF6F84" opacity="0.9529412" transform="translate(4,2)"/>
<path d="M0,0 L1,0 L1,1 L0,1 Z " fill="#FF6D86" opacity="0.08235294" transform="translate(11,1)"/>
<path d="M0,0 L1,0 L1,1 L0,1 Z " fill="#FF6F84" opacity="0.5137255" transform="translate(10,1)"/>
<path d="M0,0 L1,0 L1,1 L0,1 Z " fill="#FF7084" opacity="0.8156863" transform="translate(9,1)"/>
<path d="M0,0 L1,0 L1,1 L0,1 Z " fill="#FF6F84" opacity="0.9529412" transform="translate(8,1)"/>
<path d="M0,0 L1,0 L1,1 L0,1 Z " fill="#FF7084" opacity="0.8156863" transform="translate(6,1)"/>
<path d="M0,0 L1,0 L1,1 L0,1 Z " fill="#FF7480" opacity="0.08627451" transform="translate(4,1)"/>
</svg>
